<svg enable-background="new 0 0 400 400" viewBox="0 0 400 400" xmlns="http://www.w3.org/2000/svg">
    <path d="m183.51 318.66c4.28-4.47 5.96-9.77 6.19-15.44.29-6.92.2-13.87-.06-20.8-.05-1.31-1.38-3.18-2.6-3.74-16.54-7.55-25.6-42.47-15.2-61.64.37-.68.81-1.31 1.38-2.22 4.55 4.02 6.85 8.94 7.17 14.68.19 3.44-.16 6.92-.5 10.36-.87 8.93 3.04 16.21 11.32 19.63 1.13-6.02 2.17-11.9 3.37-17.75.74-3.59 1.41-7.25 2.71-10.65 1.25-3.26 4.01-4.92 8.27-4.6.57 4.67 1.14 9.29 1.71 13.91.24 2 .17 4.1.83 5.95.55 1.53 1.74 3.54 3.04 3.9 1.27.36 3.44-.71 4.55-1.82 5-4.97 9.76-10.18 14.6-15.3.76-.8 1.52-1.61 2.55-2.7 2.38 4.27 2.55 8.32.49 12.3-2.51 4.86-5.31 9.57-8.04 14.31-.43.74-1.17 1.33-1.85 1.89-.95.78-1.97 1.47-2.97 2.19-9.93 7.12-15.87 16.51-16.43 28.95-.21 4.58-.42 9.16-.54 13.75-.07 2.47-.02 4.9 2.75 6.27 2.75 1.36 4.35-.62 6.33-1.75 6.67-3.79 13.39-7.5 20.09-11.24l1.05.78c-.45 1.08-.68 2.31-1.37 3.21-6.63 8.72-14.64 16.01-23.76 22-3.83 2.51-5.76 5.82-6.16 10.11-.69 7.56-.97 15.15-1.81 22.69-.5 4.49-1.42 9.01-2.81 13.3-.67 2.08-2.85 3.68-4.92 6.2-2.24-11.23-4.51-21.24-6.13-31.36-.76-4.7-3.17-7.75-6.81-10.17-2.41-1.6-4.96-3.04-7.56-4.32-7.19-3.54-10.15-9.66-10.98-17.39 3.56-1.21 6.82-1.77 10.28.32 3.71 2.23 7.69 4.05 11.82 6.19z"/><path d="m202.28 79.09c-4.75-.17-8.38 1.3-11.96 4.7-8.9 8.45-18.86 15.46-31.27 17.95-2.04.41-4.15.5-6.16.73-1.82-5.51-1.83-5.52 2.56-8.61 17.01-11.97 34.06-23.88 50.99-35.94 2.4-1.71 4.51-3.95 6.34-6.27 2.77-3.5 5.27-7.23 7.72-10.96 4.02-6.12 9.29-10.82 15.71-14.29 3.33-1.8 6.13-.73 6.9 3.04.33 1.64.22 3.74-.54 5.17-2.81 5.3-5.38 10.89-9.12 15.49-8.74 10.73-14.07 22.13-13.01 36.5.92 12.46.79 25.15-2.5 37.34-4.26 15.8-12 29.81-24.09 41.12-4.03 3.77-8.5 6.8-14.26 7.55-4.74.62-9.42 1.74-14.06 2.63-1.98-3.1-1.07-5.13 1.39-7.58 8.41-8.34 16.6-16.9 24.65-25.59 8.21-8.86 11.89-19.62 11.75-31.59-.11-10.47-.67-20.94-1.04-31.39z"/><path d="m153.24 130.99c1.44-4 2.51-7.28 3.83-10.46.39-.93 1.35-1.74 2.24-2.33 7.24-4.84 14.58-9.55 21.77-14.46 2.74-1.87 4.64-.1 6.69 1.04 1.94 1.07 2.23 2.8 1.64 4.92-1.04 3.75-2.58 6.89-6.15 9.1-7.09 4.4-13.61 9.87-22.17 11.35-2.4.42-4.85.53-7.85.84z"/><path d="m159.15 52.69c0-.22-.09-.56.02-.64 6.41-5.05 10.74-12.91 18.96-15.36 3.84-1.14 8.33-.59 12.45-.15 2.51.27 2.96 4.57 1.1 7.76-5.01 8.63-23.86 13.49-32.53 8.39z" fill="#010101"/>
</svg>